<svg width="24" height="24" viewBox="0 0 24 24" fill="none" xmlns="http://www.w3.org/2000/svg">
<path d="M18.0001 4.19531C17.2394 4.19531 16.624 4.8107 16.624 5.57139C16.624 6.33207 17.2394 6.94746 18.0001 6.94746C18.7608 6.94746 19.3762 6.33207 19.3762 5.57139C19.3762 4.8107 18.7608 4.19531 18.0001 4.19531Z" fill="white"/>
<path d="M11.8633 5.96484C8.66666 5.96484 6.06836 8.56314 6.06836 11.7597C6.06836 14.9563 8.66666 17.5546 11.8633 17.5546C15.0598 17.5546 17.6581 14.9563 17.6581 11.7597C17.6581 8.56314 15.0598 5.96484 11.8633 5.96484ZM11.8633 15.4692C9.82051 15.4692 8.15384 13.8025 8.15384 11.7597C8.15384 9.71699 9.82051 8.05032 11.8633 8.05032C13.906 8.05032 15.5727 9.71699 15.5727 11.7597C15.5727 13.8025 13.906 15.4692 11.8633 15.4692Z" fill="white"/>
<path d="M16.4616 23.5215H7.0684C3.17095 23.5215 0 20.3505 0 16.4531V7.05985C0.00854704 3.17095 3.1795 0 7.07695 0H16.4701C20.3676 0 23.5385 3.17095 23.5385 7.0684V16.4616C23.5385 20.359 20.3676 23.53 16.4701 23.53L16.4616 23.5215ZM7.07695 2.21368C4.40173 2.21368 2.22223 4.39318 2.22223 7.0684V16.4616C2.22223 19.1368 4.40173 21.3163 7.07695 21.3163H16.4701C19.1454 21.3163 21.3249 19.1368 21.3249 16.4616V7.0684C21.3249 4.39318 19.1454 2.21368 16.4701 2.21368H7.07695Z" fill="white"/>
</svg>
