<svg width="28" height="20" viewBox="0 0 28 20" fill="none" xmlns="http://www.w3.org/2000/svg">
<path d="M28 6.2723C28 2.80751 25.2479 0 21.8514 0H6.14859C2.75214 0 0 2.80751 0 6.2723V13.7277C0 17.1925 2.75214 20 6.14859 20H21.8606C25.2571 20 28.0092 17.1925 28.0092 13.7277V6.2723H28ZM18.7587 10.554L11.7173 14.1127C11.4412 14.2629 10.5023 14.0563 10.5023 13.7371V6.44131C10.5023 6.11268 11.4504 5.91549 11.7265 6.07512L18.4734 9.8216C18.7587 9.98122 19.0533 10.4038 18.7679 10.5634L18.7587 10.554Z" fill="white"/>
</svg>
