<svg xmlns="http://www.w3.org/2000/svg" version="1.1" xmlns:xlink="http://www.w3.org/1999/xlink" width="58" height="56"><svg xmlns="http://www.w3.org/2000/svg" version="1.1" xmlns:xlink="http://www.w3.org/1999/xlink" width="58" height="56"><svg width="58" height="56" viewBox="0 0 58 56" fill="none" xmlns="http://www.w3.org/2000/svg">
<path d="M40.2707 18.9716C42.0821 22.7851 44.6445 24.3689 46.5576 28.395C48.5146 32.5147 47.1294 35.3612 44.9887 37.1773C42.7348 39.0881 38.9052 39.9291 35.0836 37.9213C32.3583 36.4887 30.2661 33.633 26.8108 25.5473C23.5079 17.8198 19.9532 10.6179 11.6607 11.3827C11.6607 11.3827 16.8224 8.69096 22.2336 11.0361C27.6449 13.3801 28.7343 18.5349 29.8595 21.6922C31.0402 25.0043 33.4916 31.5847 35.7224 33.8155C37.9532 36.0463 40.9049 35.754 42.6898 34.2152C44.4735 32.6776 43.949 30.3486 42.3305 27.9826C40.5664 25.4041 36.709 21.7835 35.913 17.1671C35.1171 12.5495 38.2767 8.91277 42.0833 9.15537C46.3762 9.43033 46.531 13.9589 46.531 13.9589C46.531 13.9589 46.8429 15.5717 48.8438 16.4196C48.8438 16.4196 46.9642 17.2225 45.2371 15.2297C45.2371 15.2297 42.528 16.4427 40.7501 13.6124C40.7501 13.6124 38.4592 15.1592 40.2718 18.9716H40.2707ZM33.4523 38.9321C29.9704 37.2281 27.9903 33.3742 25.7341 28.4574C23.4779 23.5418 21.6087 16.8321 16.4701 14.6856C10.9641 12.3855 6.21832 14.7399 3.22852 17.7297C3.22852 17.7297 11.2056 14.6013 15.837 19.8161C18.5946 22.9214 19.9197 27.3726 22.2833 31.5881C23.9319 34.5294 25.7456 37.0698 28.1786 38.6063C28.1786 38.6063 25.5146 38.1119 22.601 33.8548C19.8053 29.7698 18.4178 26.4796 15.2698 22.6984C12.0085 18.781 8.59468 17.9781 3.939 20.1592C3.939 20.1592 9.36986 20.7253 13.1025 26.9313C17.3619 34.0119 20.3725 39.7847 25.8993 42.2177C31.1788 44.5409 36.8211 44.1227 41.2353 39.7084C41.2353 39.7084 36.9331 40.6361 33.4512 38.9321H33.4523Z" fill="url(#paint0_linear_2492_6813)"></path>
<path d="M11.1524 47.9882C11.0196 47.4741 11.112 46.9277 11.3985 46.4806C12.0581 45.4501 13.62 43.604 16.6792 42.8092C21.0379 41.6759 23.5345 43.7923 27.2047 44.7789C30.92 45.777 33.0965 46.0081 36.5022 45.7909C36.5022 45.7909 37.9752 46.7648 36.3913 48.0367C34.8063 49.3087 32.5478 49.0915 30.2199 48.9367C27.8932 48.7819 26.9124 48.1719 24.8341 48.9367C24.8341 48.9367 26.3567 48.7911 28.9018 49.3618C32.0279 50.063 35.541 50.4108 38.1843 47.9431C40.8286 45.4755 43.1288 43.0472 44.8085 41.714C46.6257 40.2711 48.2165 40.6777 48.8889 40.9654C49.0679 41.0416 49.1211 41.2704 48.9952 41.4194L42.7868 48.798C42.7868 48.798 38.6337 53.7518 33.3634 54.7776C28.0931 55.8035 24.4991 53.9297 22.2013 53.2134C20.0363 52.5399 18.1764 52.1494 16.0692 52.5492C15.48 52.6612 14.87 52.5549 14.3652 52.2315C13.3358 51.5718 11.7335 50.2248 11.1547 47.987L11.1524 47.9882ZM14.3213 0.040434C8.16723 0.425134 3.43068 4.83013 1.47367 9.83585C0.370401 12.657 -0.090546 15.5625 0.0145824 18.7533C0.373867 29.6843 10.1393 38.1073 13.3613 40.0366C16.3083 41.9682 15.0965 40.7563 14.9313 40.687C11.3985 38.3707 2.44755 29.8299 1.74631 19.5377C1.70357 16.7743 2.18184 14.0121 3.30129 11.4324C5.35649 6.58034 9.87354 2.72641 15.6244 2.36019C21.2598 1.95238 26.0691 4.83475 29.484 8.76378C30.0108 8.19423 30.5677 7.6478 31.1557 7.12562C33.338 5.1975 35.9974 3.67141 38.9722 3.0776C42.4807 2.36365 46.2087 3.00136 49.15 4.9445C54.1488 8.23351 56.1566 14.2466 55.7719 19.7445C55.3699 25.7137 52.4471 32.1924 48.1865 36.5789C47.96 36.8053 48.2812 36.8123 48.2858 36.7995C53.6843 32.2374 56.8232 25.1823 57.2968 18.2866C57.7081 12.516 55.5593 6.20488 50.2082 2.75298C47.0589 0.713949 43.0675 0.0438998 39.313 0.793661C36.1279 1.41634 33.6233 2.88121 31.2874 4.90522C30.6578 5.45281 30.0617 6.02582 29.4979 6.62424C26.0749 2.76222 20.9987 0 15.4557 0C15.0814 0 14.7037 0.0127078 14.3213 0.040434Z" fill="url(#paint1_linear_2492_6813)"></path>
<defs>
<linearGradient id="paint0_linear_2492_6813" x1="3.22967" y1="26.3779" x2="48.8438" y2="26.3779" gradientUnits="userSpaceOnUse">
<stop stop-color="#77471D"></stop>
<stop offset="0.27" stop-color="#9B5E26"></stop>
<stop offset="0.53" stop-color="#E1AC25"></stop>
<stop offset="0.72" stop-color="#E8B129"></stop>
<stop offset="0.77" stop-color="#DDA527"></stop>
<stop offset="0.86" stop-color="#BF8624"></stop>
<stop offset="0.97" stop-color="#90551F"></stop>
<stop offset="1" stop-color="#84481E"></stop>
</linearGradient>
<linearGradient id="paint1_linear_2492_6813" x1="-0.00043594" y1="27.539" x2="57.3454" y2="27.539" gradientUnits="userSpaceOnUse">
<stop stop-color="#4F7A3C"></stop>
<stop offset="1" stop-color="#98A63C"></stop>
</linearGradient>
</defs>
</svg></svg><style>@media (prefers-color-scheme: light) { :root { filter: none; } }
@media (prefers-color-scheme: dark) { :root { filter: none; } }
</style></svg>